<?xml version="1.0" standalone="no"?><!DOCTYPE svg PUBLIC "-//W3C//DTD SVG 1.1//EN" "http://www.w3.org/Graphics/SVG/1.1/DTD/svg11.dtd"><svg t="1602124877345" class="icon" viewBox="0 0 1024 1024" version="1.1" xmlns="http://www.w3.org/2000/svg" p-id="3891" xmlns:xlink="http://www.w3.org/1999/xlink" width="200" height="200"><defs><style type="text/css"></style></defs><path d="M896 358.016a43.072 43.072 0 0 0-57.6-12.416 38.4 38.4 0 0 0-12.8 54.208 300.8 300.8 0 0 1 51.2 167.104A324.416 324.416 0 0 1 544 881.536a324.48 324.48 0 0 1-332.8-314.56A324.48 324.48 0 0 1 544 252.352a344.128 344.128 0 0 1 40.448 2.56l-86.976 73.984a37.824 37.824 0 0 0-3.136 55.552 43.328 43.328 0 0 0 58.752 2.944l149.76-127.424s0.384-0.576 0.704-0.832 1.664-1.28 2.432-2.048a37.248 37.248 0 0 0 3.136-5.056 38.4 38.4 0 0 0 4.096-6.4 35.52 35.52 0 0 0 1.92-7.296 36.032 36.032 0 0 0 1.088-7.36 36.032 36.032 0 0 0-1.088-7.36 35.52 35.52 0 0 0-1.92-7.296 38.4 38.4 0 0 0-4.096-6.4 37.376 37.376 0 0 0-3.136-5.056c-0.512-0.576-1.28-0.768-1.792-1.28s-0.704-1.152-1.28-1.664L553.088 74.048a43.328 43.328 0 0 0-58.752 2.944 37.824 37.824 0 0 0 3.136 55.552l48.384 41.216H544a405.568 405.568 0 0 0-416 393.216A405.568 405.568 0 0 0 544 960a405.568 405.568 0 0 0 416-393.024 376.384 376.384 0 0 0-64-208.96z" fill="#ee2e23" p-id="3892"></path></svg>