<?xml version="1.0" standalone="no"?><!DOCTYPE svg PUBLIC "-//W3C//DTD SVG 1.1//EN" "http://www.w3.org/Graphics/SVG/1.1/DTD/svg11.dtd"><svg t="1599555880244" class="icon" viewBox="0 0 1024 1024" version="1.1" xmlns="http://www.w3.org/2000/svg" p-id="12370" xmlns:xlink="http://www.w3.org/1999/xlink" width="200" height="200"><defs><style type="text/css"></style></defs><path d="M529.808 143.872c114.656-0.016 229.36 2.08 343.92-0.896 57.04-1.488 84.752 18.208 84.544 76.976-0.752 205.296-0.512 410.608-0.144 615.904 0.096 51.872-20.016 77.424-76.32 77.008a51755.52 51755.52 0 0 0-711.888-0.096c-52.928 0.336-71.856-24.912-71.856-72.752 0-207.968 0.224-415.936-0.128-623.888-0.096-54.608 26.192-74.224 79.952-73.04 117.264 2.56 234.624 0.784 351.92 0.784zM524.8 865.904c109.232 0 218.512-1.648 327.68 0.816 43.792 0.992 60.896-10.864 60.304-57.776-2.32-186.464-2.048-373.008-0.128-559.488 0.448-43.744-11.008-60.72-57.744-60.288-218.448 2.096-436.944 1.664-655.408 0.288-40.048-0.272-56.56 10.384-56.128 53.616 1.904 189.136 2.336 378.336-0.224 567.472-0.656 49.152 20.24 56.88 61.968 56.064 106.512-2.08 213.104-0.704 319.68-0.704z" fill="#ffffff" p-id="12371"></path><path d="M775.76 464.528c9.184 0 25.168-0.72 41.056 0.224 14.032 0.832 28.016 6.624 24.848 22.928-1.52 7.728-15.616 19.92-21.952 18.784-167.68-30.304-262.896 153.76-427.696 142.72-52.112-3.488-88.64 62.736-134.032 94.704-12.224 8.624-23.264 26.448-39.952 9.12-16.048-16.64-1.888-29.776 9.872-39.6 70.864-59.152 135.6-128.128 241.088-123.056 53.552 2.576 93.424-34.032 131.888-67.168 48.448-41.808 103.552-63.728 174.88-58.656zM368.592 336.352c36.384 2.992 50.576 23.408 49.312 58.016-1.232 33.664-22.16 47.088-51.296 46.592-29.44-0.512-48.704-15.344-48.784-48.976-0.08-35.424 16.096-53.696 50.768-55.632z" fill="#ffffff" p-id="12372"></path></svg>