<?xml version="1.0" standalone="no"?><!DOCTYPE svg PUBLIC "-//W3C//DTD SVG 1.1//EN" "http://www.w3.org/Graphics/SVG/1.1/DTD/svg11.dtd"><svg t="1599892314408" class="icon" viewBox="0 0 1024 1024" version="1.1" xmlns="http://www.w3.org/2000/svg" p-id="14840" xmlns:xlink="http://www.w3.org/1999/xlink" width="200" height="200"><defs><style type="text/css"></style></defs><path d="M719.552 833.856c-8 0-16-5.376-21.376-10.752l-69.568-69.632c-10.752-10.624-10.752-32.128 0-42.88 10.688-10.752 32.192-10.752 42.752 0l21.44 21.376V622.272c0-15.872 13.44-29.376 29.504-29.376 16 0 29.504 13.504 29.504 29.376v109.76l21.44-21.376a32.448 32.448 0 0 1 42.816 0c10.688 10.752 10.688 32.256 0 42.88l-69.504 69.632c-13.696 10.688-27.008 10.688-27.008 10.688z m0 109.632a230.08 230.08 0 0 1-230.08-230.272c0-125.632 104.256-230.08 230.08-230.08 125.888 0 230.272 104.448 230.272 230.08 0 126.016-104.384 230.272-230.272 230.272z m0-61.504a172.544 172.544 0 0 0 171.456-171.392 172.48 172.48 0 0 0-171.456-171.264 172.416 172.416 0 0 0-171.2 171.264 172.48 172.48 0 0 0 171.2 171.392z m208.832-452.352c0 18.752-13.376 29.376-26.624 29.376a29.696 29.696 0 0 1-29.568-29.376V349.376a50.88 50.88 0 0 0-50.752-51.008H593.728c-16 0-29.312-5.312-42.688-13.376L411.904 180.608c-2.688 0-2.688-2.624-5.312-2.624H219.136a50.816 50.816 0 0 0-50.88 50.816v562.304c0 26.624 21.44 50.624 50.88 50.624h200.832c16.064 0 29.376 13.504 29.376 29.504a29.632 29.632 0 0 1-29.376 29.504h-203.52a108.416 108.416 0 0 1-109.696-109.632V228.864c0-61.568 48.128-109.696 109.696-109.696h187.456c16.064 0 29.44 5.312 42.752 13.376l139.2 104.32c2.624 0 2.624 2.688 5.312 2.688h227.584c61.504 0 109.632 48.192 109.632 109.888v80.192z m0 0" p-id="14841" fill="#515151"></path></svg>