<?xml version="1.0" standalone="no"?><!DOCTYPE svg PUBLIC "-//W3C//DTD SVG 1.1//EN" "http://www.w3.org/Graphics/SVG/1.1/DTD/svg11.dtd"><svg t="1600071005911" class="icon" viewBox="0 0 1024 1024" version="1.1" xmlns="http://www.w3.org/2000/svg" p-id="2729" width="200" height="200" xmlns:xlink="http://www.w3.org/1999/xlink"><defs><style type="text/css"></style></defs><path d="M722.752 544H32a32 32 0 0 1 0-64h690.752L553.344 310.656a32 32 0 1 1 45.312-45.312l224 224a31.872 31.872 0 0 1 0 45.312l-224 224a32 32 0 0 1-45.312-45.312L722.752 544zM128 288a32 32 0 0 1-64 0v-128A160 160 0 0 1 224 0h640A160 160 0 0 1 1024 160v704a160 160 0 0 1-160 160h-640A160 160 0 0 1 64 864V704a32 32 0 1 1 64 0v160A96 96 0 0 0 224 960h640a96 96 0 0 0 96-96v-704A96 96 0 0 0 864 64h-640A96 96 0 0 0 128 160v128z" fill="#5A5A5A" p-id="2730"></path></svg>