<?xml version="1.0" standalone="no"?><!DOCTYPE svg PUBLIC "-//W3C//DTD SVG 1.1//EN" "http://www.w3.org/Graphics/SVG/1.1/DTD/svg11.dtd"><svg t="1600256296187" class="icon" viewBox="0 0 1058 1024" version="1.1" xmlns="http://www.w3.org/2000/svg" p-id="4149" xmlns:xlink="http://www.w3.org/1999/xlink" width="206.640625" height="200"><defs><style type="text/css"></style></defs><path d="M1024.443733 515.310933v329.966934c0 65.877333-53.896533 132.334933-107.178666 159.266133-29.969067 14.984533-61.678933 19.182933-95.232 19.182933-208.9984-0.6144-418.577067-0.6144-627.575467-0.6144-103.594667 0-189.815467-94.6176-189.2352-189.2352C6.417067 618.325333 5.8368 402.773333 5.8368 186.538667c0-70.0416 49.698133-136.533333 110.7968-165.2736C144.725333 8.0896 174.08 2.730667 205.243733 2.730667c211.387733 0.6144 422.775467 0.6144 634.1632 0.6144 72.465067 0 137.728 49.117867 167.662934 110.1824 13.789867 28.16 18.568533 57.480533 18.568533 88.644266-1.809067 104.789333-1.194667 208.964267-1.194667 313.173334z m-375.466666-113.7664c1.194667 0 4.778667 0.580267 7.7824 0.580267 3.003733 0.6144 6.007467 0.6144 8.3968 2.389333 50.858667 26.965333 89.224533 67.6864 101.205333 123.972267 14.336 68.881067 0.580267 133.5296-46.728533 188.6208-76.049067 88.644267-216.746667 110.1824-319.761067 56.32-111.957333-58.094933-179.643733-206.609067-130.56-334.779733 25.156267-65.877333 64.068267-118.545067 128.170667-150.869334 16.725333-8.3968 34.7136-16.1792 50.2784-26.965333 20.957867-14.370133 24.576-37.717333 11.9808-58.709333-10.786133-18.5344-35.908267-26.9312-55.671467-19.114667-114.3808 44.885333-189.8496 124.5184-228.181333 242.4832-28.125867 87.4496-17.954133 170.666667 17.408 252.7232 25.122133 57.480533 63.453867 104.789333 114.346666 143.701333a356.590933 356.590933 0 0 0 137.147734 64.682667c79.633067 17.988267 157.4912 7.168 232.3456-26.350933 132.9152-59.2896 222.754133-212.5824 174.830933-367.069867-25.736533-82.6368-80.213333-138.922667-158.071467-173.056-25.156267-10.786133-52.701867-16.1792-81.442133-23.9616-2.389333-18.568533-6.587733-38.912-7.7824-59.2896-1.194667-25.736533 23.9616-41.301333 47.3088-30.549333 11.946667 5.393067 23.3472 13.175467 34.7136 19.797333 31.744 18.5344 61.098667 11.3664 73.045333-19.182933 6.621867-17.373867-1.160533-44.305067-20.923733-56.32-21.572267-13.141333-45.533867-22.7328-68.881067-32.904534-53.896533-23.9616-123.972267 14.984533-151.517866 63.488-18.5344 32.324267-13.755733 67.652267-4.778667 101.7856 3.003733 12.561067 11.9808 26.350933-6.587733 34.747734-8.977067 4.164267-17.954133 7.7824-26.965334 11.946666-80.827733 34.747733-129.3312 141.312-105.984 228.7616 20.3776 75.434667 110.7968 138.922667 189.2352 111.957334 49.698133-16.725333 113.800533-76.629333 106.5984-140.6976-3.584-41.915733-13.175467-84.445867-20.957866-128.136534z" fill="#E00000" p-id="4150"></path><path d="M648.977067 401.544533c7.7824 44.305067 17.373867 86.2208 22.186666 129.365334 7.168 64.034133-56.9344 123.904-106.632533 140.6976-78.4384 26.965333-168.8576-37.137067-189.2352-111.957334-23.3472-87.4496 25.156267-194.048 106.018133-228.7616 8.977067-4.1984 17.954133-7.816533 26.965334-11.9808 18.5344-8.3968 9.557333-22.186667 6.5536-34.747733-8.362667-34.7136-13.175467-69.461333 4.778666-101.7856 26.965333-48.503467 97.041067-86.8352 151.552-63.488 23.313067 10.171733 47.274667 19.7632 68.846934 32.938667 19.7632 11.946667 27.5456 38.912 20.957866 56.285866-11.400533 29.934933-41.301333 37.717333-73.045333 19.1488-11.400533-6.587733-22.766933-14.336-34.747733-19.7632-23.3472-10.752-48.503467 4.778667-47.3088 30.549334 0.580267 20.3776 4.778667 40.721067 7.7824 59.2896 28.740267 8.3968 56.32 13.175467 81.442133 23.9616 77.243733 34.133333 132.334933 89.8048 158.071467 173.056 47.9232 154.487467-41.915733 308.394667-174.830934 367.069866-74.8544 33.553067-152.712533 44.3392-232.3456 26.350934a356.590933 356.590933 0 0 1-137.147733-64.648534c-50.8928-38.912-89.224533-85.674667-114.346667-143.701333-35.9424-81.476267-45.533867-164.727467-17.408-252.7232 37.751467-117.998933 113.186133-198.212267 228.181334-242.551467 20.343467-7.7824 44.885333 0.6144 55.671466 19.182934 12.5952 20.957867 8.3968 44.305067-11.946666 58.6752-15.598933 10.786133-33.553067 17.954133-50.312534 26.965333-63.488 32.324267-103.0144 84.992-128.170666 150.869333-49.083733 128.170667 18.568533 276.6848 130.56 334.779734 102.980267 53.8624 243.712 32.324267 319.761066-56.32 47.3088-55.0912 61.098667-120.354133 46.728534-188.6208-11.9808-56.285867-50.312533-96.392533-101.205334-123.938134-2.389333-1.2288-5.393067-1.809067-8.3968-2.389333-4.1984-1.809067-7.7824-1.809067-8.977066-1.809067z m-97.621334 0c-75.434667 17.339733-109.568 94.0032-76.629333 155.682134 11.3664 21.572267 39.5264 33.553067 59.869867 27.5456 28.16-8.362667 47.9232-28.740267 43.690666-55.0912-6.5536-43.1104-17.92-85.640533-26.9312-128.136534z" fill="#FFFFFF" p-id="4151"></path><path d="M551.355733 401.544533c9.0112 42.496 20.3776 84.992 26.965334 128.136534 4.1984 26.350933-15.5648 46.728533-43.690667 55.0912-20.3776 6.007467-48.5376-5.973333-59.904-27.5456-32.938667-62.2592 0.580267-138.922667 76.629333-155.682134z" fill="#E00000" p-id="4152"></path></svg>