<?xml version="1.0" standalone="no"?><!DOCTYPE svg PUBLIC "-//W3C//DTD SVG 1.1//EN" "http://www.w3.org/Graphics/SVG/1.1/DTD/svg11.dtd"><svg t="1599656770611" class="icon" viewBox="0 0 1024 1024" version="1.1" xmlns="http://www.w3.org/2000/svg" p-id="4473" xmlns:xlink="http://www.w3.org/1999/xlink" width="200" height="200"><defs><style type="text/css"></style></defs><path d="M311.85 397.63c26.32 0 47.65 21.34 47.65 47.65s-21.34 47.65-47.65 47.65c-26.32 0-47.65-21.34-47.65-47.65s21.33-47.65 47.65-47.65zM521.53 397.63c26.32 0 47.65 21.34 47.65 47.65s-21.34 47.65-47.65 47.65-47.65-21.34-47.65-47.65 21.33-47.65 47.65-47.65zM731.21 397.63c26.32 0 47.65 21.34 47.65 47.65s-21.34 47.65-47.65 47.65c-26.32 0-47.65-21.34-47.65-47.65s21.33-47.65 47.65-47.65z" p-id="4474" fill="#939393"></path><path d="M512 883.7c-10.26 0-19.73-5.5-24.83-14.41l-57.11-99.96H187.95c-36.78 0-66.72-29.93-66.72-66.72v-495.6c0-36.78 29.93-66.72 66.72-66.72h648.1c36.78 0 66.72 29.93 66.72 66.72v495.6c0 36.78-29.93 66.72-66.72 66.72H593.94l-57.11 99.96A28.613 28.613 0 0 1 512 883.7zM187.95 197.48c-5.25 0-9.53 4.27-9.53 9.53v495.6c0 5.26 4.28 9.53 9.53 9.53h258.69c10.26 0 19.73 5.5 24.83 14.41L512 797.48l40.52-70.92a28.625 28.625 0 0 1 24.83-14.41h258.69c5.25 0 9.53-4.27 9.53-9.53v-495.6c0-5.26-4.28-9.53-9.53-9.53H187.95z" p-id="4475" fill="#939393"></path></svg>