<?xml version="1.0" standalone="no"?><!DOCTYPE svg PUBLIC "-//W3C//DTD SVG 1.1//EN" "http://www.w3.org/Graphics/SVG/1.1/DTD/svg11.dtd"><svg t="1599008158328" class="icon" viewBox="0 0 1024 1024" version="1.1" xmlns="http://www.w3.org/2000/svg" p-id="5051" xmlns:xlink="http://www.w3.org/1999/xlink" width="200" height="200"><defs><style type="text/css"></style></defs><path d="M963.52711788 29.2680246l-257.29383026 52.50009013c-18.65705683 3.9049654-32.10749316 20.17565446-32.10749317 39.26659636v569.04023339c0 31.89055063-21.91119462 59.65919334-53.1509177 67.03523904L542.44168406 775.55029785c-47.29346964 11.06406858-84.60758331 51.63232006-84.82452586 100.22744482-0.43388503 66.38441152 61.177791 115.41342133 125.60971985 100.44438738l41.21907906-9.54547091c67.2521816-15.61986151 114.97953631-74.19434229 118.23367408-142.53123651h0.65082757v-514.15377549c0-14.96903399 10.63018353-27.98558523 25.38227501-31.02278054l207.61399288-42.30379168c14.96903399-3.03719531 25.81616002-16.2706891 25.81616004-31.67360808v-144.26677667c0.21694254-20.392597-18.44011431-35.57857347-38.61576881-31.45666557zM35.23006926 158.34882477h519.14345345v45.77487194H35.23006926zM35.23006926 339.92971509h519.14345345v45.77487197H35.23006926z" fill="#707070" p-id="5052"></path><path d="M35.23006926 521.51060544h519.14345345V567.2854774H35.23006926zM35.23006926 703.09149577h280.28973751v45.77487194H35.23006926z" fill="#707070" p-id="5053"></path></svg>