<?xml version="1.0" standalone="no"?><!DOCTYPE svg PUBLIC "-//W3C//DTD SVG 1.1//EN" "http://www.w3.org/Graphics/SVG/1.1/DTD/svg11.dtd"><svg t="1599555794680" class="icon" viewBox="0 0 1024 1024" version="1.1" xmlns="http://www.w3.org/2000/svg" p-id="9164" xmlns:xlink="http://www.w3.org/1999/xlink" width="200" height="200"><defs><style type="text/css"></style></defs><path d="M211.626667 145.408C208.213333 138.581333 201.386667 135.168 194.56 135.168H204.8l6.826667 10.24z" fill="#ffffff" p-id="9165"></path><path d="M450.56 145.408C447.146667 138.581333 440.32 135.168 433.493333 135.168H443.733333l6.826667 10.24z" fill="#ffffff" p-id="9166"></path><path d="M655.36 145.408C651.946667 138.581333 645.12 135.168 638.293333 135.168H648.533333l6.826667 10.24z" fill="#ffffff" p-id="9167"></path><path d="M453.973333 522.24v167.253333l160.426667-85.333333-160.426667-81.92z m0 204.8c-6.826667 0-13.653333-3.413333-20.48-6.826667-10.24-6.826667-17.066667-17.066667-17.066666-30.72v-170.666666c0-13.653333 6.826667-23.893333 17.066666-30.72 13.653333-6.826667 27.306667-6.826667 40.96 0l163.84 85.333333c13.653333 6.826667 20.48 20.48 20.48 34.133333s-6.826667 27.306667-20.48 34.133334l-163.84 85.333333h-20.48z" fill="#ffffff" p-id="9168"></path><path d="M832.853333 904.533333H174.08c-75.093333 0-139.946667-61.44-139.946667-136.533333V273.066667c0-75.093333 61.44-136.533333 139.946667-136.533334h658.773333c75.093333 0 139.946667 61.44 139.946667 136.533334v494.933333c0 75.093333-64.853333 136.533333-139.946667 136.533333zM174.08 187.733333C122.88 187.733333 85.333333 225.28 85.333333 273.066667v494.933333c0 47.786667 40.96 85.333333 88.746667 85.333333h658.773333c47.786667 0 88.746667-37.546667 88.746667-85.333333V273.066667c0-47.786667-40.96-85.333333-88.746667-85.333334H174.08z" fill="#ffffff" p-id="9169"></path><path d="M945.493333 375.466667h-887.466666c-13.653333 0-23.893333-13.653333-23.893334-27.306667s10.24-23.893333 23.893334-23.893333h887.466666c13.653333 0 23.893333 10.24 23.893334 23.893333s-10.24 27.306667-23.893334 27.306667z" fill="#ffffff" p-id="9170"></path><path d="M365.226667 358.4c-6.826667 0-13.653333-3.413333-17.066667-6.826667l-170.666667-170.666666c-10.24-10.24-10.24-23.893333 0-34.133334 10.24-10.24 23.893333-10.24 34.133334 0l170.666666 170.666667c10.24 10.24 10.24 23.893333 0 34.133333-3.413333 3.413333-10.24 6.826667-17.066666 6.826667zM604.16 358.4c-6.826667 0-13.653333-3.413333-17.066667-6.826667l-170.666666-170.666666c-10.24-10.24-10.24-23.893333 0-34.133334 10.24-10.24 23.893333-10.24 34.133333 0l170.666667 170.666667c10.24 10.24 10.24 23.893333 0 34.133333-3.413333 3.413333-10.24 6.826667-17.066667 6.826667zM453.973333 727.04c-6.826667 0-13.653333-3.413333-20.48-6.826667-10.24-6.826667-17.066667-17.066667-17.066666-30.72v-170.666666c0-13.653333 6.826667-23.893333 17.066666-30.72 13.653333-6.826667 27.306667-6.826667 40.96 0l163.84 85.333333c13.653333 6.826667 20.48 20.48 20.48 34.133333s-6.826667 27.306667-20.48 34.133334l-163.84 85.333333h-20.48z m0-204.8v167.253333l160.426667-85.333333-160.426667-81.92z m167.253334 85.333333l10.24-17.066666-10.24 17.066666z" fill="#ffffff" p-id="9171"></path></svg>