<?xml version="1.0" standalone="no"?><!DOCTYPE svg PUBLIC "-//W3C//DTD SVG 1.1//EN" "http://www.w3.org/Graphics/SVG/1.1/DTD/svg11.dtd"><svg t="1599892511393" class="icon" viewBox="0 0 1024 1024" version="1.1" xmlns="http://www.w3.org/2000/svg" p-id="24429" xmlns:xlink="http://www.w3.org/1999/xlink" width="200" height="200"><defs><style type="text/css"></style></defs><path d="M955.392 405.504c0-0.512 0-1.024-0.512-1.536-10.24-30.72-44.544-53.76-72.704-58.368l-204.288-29.696-89.088-178.176c-14.848-29.696-44.544-48.64-77.824-48.64-32.768 0-62.464 18.432-77.824 48.64l-89.088 178.688-204.288 29.696c-32.256 5.12-58.88 26.624-68.096 54.272-10.24 36.352-3.072 69.12 19.968 87.552l148.48 144.384-34.304 204.8c-4.608 33.28 9.216 62.976 38.912 82.944 15.36 10.24 32.256 15.36 49.152 15.36 14.336 0 28.672-3.584 42.496-10.24l174.08-93.696 174.08 93.696c0.512 0 1.024 0.512 1.536 0.512 13.312 4.608 27.648 9.216 41.984 9.216 18.432 0 33.28-4.608 48.64-14.336 28.16-18.944 44.032-52.224 38.912-82.944l-34.304-204.288 148.48-144.384c22.016-18.432 31.232-49.152 25.6-83.456z m-648.704 211.968c0.512-3.072-0.512-6.144-2.56-8.192l-165.376-161.28c-0.512-0.512-1.024-0.512-1.536-1.024-9.216-6.144-12.8-14.848-9.728-24.576 4.096-12.288 18.944-17.92 28.16-19.968l225.792-34.816c3.072-0.512 5.12-2.048 6.656-4.608l100.352-196.096c0-0.512 0.512-1.024 0.512-1.024 3.072-9.728 13.312-15.872 26.112-15.872 12.8 0 23.552 5.632 31.232 17.408l95.744 195.584c1.536 2.56 4.096 4.608 6.656 5.12l225.792 30.208c13.824 3.584 20.992 10.24 28.16 20.992 2.048 10.24-1.536 19.968-11.264 29.184L731.136 609.792c-2.048 2.048-3.072 5.12-2.56 7.68l34.816 222.208c0 0.512 0 1.024 0.512 1.536 1.536 4.096 0.512 9.216-1.536 13.824-2.56 4.608-6.144 8.192-10.24 9.728-0.512 0-1.536 0.512-2.048 1.024-10.752 7.168-25.6 6.656-34.816 3.584l-195.072-103.936c-2.56-1.536-5.632-1.536-8.192 0l-196.096 104.448c-0.512 0-0.512 0.512-0.512 0.512-9.728 6.656-24.064 2.048-33.792-4.608-8.704-6.144-13.312-14.848-13.312-26.624l38.4-221.696z" p-id="24430" fill="#515151"></path><path d="M397.824 555.52c13.312 0 26.624-12.8 26.624-26.624 0-0.512 0.512-39.424 23.04-62.976 17.408-12.8 37.376-19.456 59.392-19.456 13.312 0 26.624-12.8 26.624-26.624 0-15.36-9.216-30.72-26.624-30.72-39.424 0-73.216 12.8-97.792 37.376-40.448 40.448-37.888 97.28-37.376 102.4 0 13.824 12.8 26.624 26.112 26.624z" p-id="24431" fill="#515151"></path></svg>