<?xml version="1.0" standalone="no"?><!DOCTYPE svg PUBLIC "-//W3C//DTD SVG 1.1//EN" "http://www.w3.org/Graphics/SVG/1.1/DTD/svg11.dtd"><svg t="1600245640814" class="icon" viewBox="0 0 1024 1024" version="1.1" xmlns="http://www.w3.org/2000/svg" p-id="4349" xmlns:xlink="http://www.w3.org/1999/xlink" width="200" height="200"><defs><style type="text/css"></style></defs><path d="M512 512m-448 0a448 448 0 1 0 896 0 448 448 0 1 0-896 0Z" fill="#FFFFFF" p-id="4350"></path><path d="M459.8 67C259.9 89.5 95.7 249.6 68.3 448.8c-22 160.3 41.2 306.6 150.4 401.3 29.5-143.4 115-255 222.8-289.5 11.8-3.8 11.8-20.2 0.6-25.5-61.8-29.1-102.4-95.4-92-170.4 9.4-68.2 64-125.4 131.7-137.5 103.6-18.5 193.6 60.6 193.6 160.8 0 65.4-38.6 121.4-94.1 147.3-11 5.1-10.6 21.6 1 25.3C690.2 595 775.7 706.7 805.2 850.1 899.9 768 960 647.1 960 512c0-264.6-229.4-475.6-500.2-445z" fill="#D6D6D6" p-id="4351"></path></svg>