<?xml version="1.0" standalone="no"?><!DOCTYPE svg PUBLIC "-//W3C//DTD SVG 1.1//EN" "http://www.w3.org/Graphics/SVG/1.1/DTD/svg11.dtd"><svg t="1599892212462" class="icon" viewBox="0 0 1024 1024" version="1.1" xmlns="http://www.w3.org/2000/svg" p-id="10730" xmlns:xlink="http://www.w3.org/1999/xlink" width="200" height="200"><defs><style type="text/css"></style></defs><path d="M512.518 98.228C283.962 98.228 98 284.178 98 512.745s185.962 414.518 414.518 414.518c12.729 0 23.029-10.311 23.029-23.029s-10.3-23.029-23.029-23.029c-203.166 0-368.46-165.294-368.46-368.46s165.294-368.46 368.46-368.46 368.46 165.294 368.46 368.46c0 12.718 10.3 23.029 23.029 23.029s23.029-10.311 23.029-23.029c0-228.567-185.962-414.517-414.518-414.517z" p-id="10731" fill="#515151"></path><path d="M650.69 696.976c-12.729 0-23.029 10.311-23.029 23.029v184.23c0 12.718 10.3 23.029 23.029 23.029s23.029-10.311 23.029-23.029v-184.23c0-12.718-10.3-23.029-23.029-23.029zM765.834 558.803c-12.729 0-23.029 10.311-23.029 23.029v322.403c0 12.718 10.3 23.029 23.029 23.029s23.029-10.311 23.029-23.029V581.832c0-12.718-10.3-23.029-23.029-23.029zM880.978 696.976c-12.729 0-23.029 10.311-23.029 23.029v184.23c0 12.718 10.3 23.029 23.029 23.029s23.029-10.311 23.029-23.029v-184.23c0-12.718-10.3-23.029-23.029-23.029zM654.584 466.98l-212.51-113.32a46.024 46.024 0 0 0-21.67-5.417 46.057 46.057 0 0 0-46.053 46.817l3.854 233.589a46.061 46.061 0 0 0 46.052 45.298 46.034 46.034 0 0 0 23.001-6.154l208.656-120.269a46.06 46.06 0 0 0-1.33-80.544zM424.257 627.889L420.403 394.3l212.51 113.319-208.656 120.27z" p-id="10732" fill="#515151"></path></svg>