<?xml version="1.0" standalone="no"?><!DOCTYPE svg PUBLIC "-//W3C//DTD SVG 1.1//EN" "http://www.w3.org/Graphics/SVG/1.1/DTD/svg11.dtd"><svg t="1599552711836" class="icon" viewBox="0 0 1024 1024" version="1.1" xmlns="http://www.w3.org/2000/svg" p-id="3311" xmlns:xlink="http://www.w3.org/1999/xlink" width="200" height="200"><defs><style type="text/css"></style></defs><path d="M814.592 949.76h-614.4c-70.656 0-128-57.344-128-128v-614.4c0-70.656 57.344-128 128-128h190.976c14.336 0 25.6 11.264 25.6 25.6s-11.264 25.6-25.6 25.6H200.192c-42.496 0-76.8 34.304-76.8 76.8v614.4c0 42.496 34.304 76.8 76.8 76.8h614.4c42.496 0 76.8-34.304 76.8-76.8v-288.256c0-14.336 11.264-25.6 25.6-25.6s25.6 11.264 25.6 25.6v288.256c0 70.656-57.344 128-128 128z" fill="#ffffff" p-id="3312"></path><path d="M365.568 788.48c-14.336 0-25.6-11.264-25.6-25.6 0-317.952 258.56-577.024 577.024-577.024 14.336 0 25.6 11.264 25.6 25.6s-11.264 25.6-25.6 25.6C627.2 237.056 391.168 473.088 391.168 762.88c0 14.336-11.264 25.6-25.6 25.6z" fill="#ffffff" p-id="3313"></path><path d="M756.736 412.16c-6.144 0-12.8-2.56-17.408-7.168-10.24-9.728-10.752-26.112-1.024-36.352l145.408-153.088-188.928-94.208c-12.8-6.144-17.92-21.504-11.264-34.304 6.144-12.8 21.504-17.92 34.304-11.264l219.648 109.568c7.168 3.584 12.288 10.24 13.824 18.432 1.536 8.192-1.024 16.384-6.656 22.016l-168.96 178.176c-5.12 5.632-11.776 8.192-18.944 8.192z" fill="#ffffff" p-id="3314"></path></svg>