<?xml version="1.0" standalone="no"?><!DOCTYPE svg PUBLIC "-//W3C//DTD SVG 1.1//EN" "http://www.w3.org/Graphics/SVG/1.1/DTD/svg11.dtd"><svg t="1600002641720" class="icon" viewBox="0 0 1024 1024" version="1.1" xmlns="http://www.w3.org/2000/svg" p-id="14767" xmlns:xlink="http://www.w3.org/1999/xlink" width="200" height="200"><defs><style type="text/css"></style></defs><path d="M989.568 428.288c-22.976-22.976-50.88-34.432-83.712-34.432H768c-16.384 0-30.336-5.76-41.856-17.28-11.52-11.52-17.152-25.472-17.152-41.856v-19.584c0-43.584 15.36-80.64 46.08-111.488 30.784-30.72 67.904-46.144 111.36-46.144h39.36c10.688 0 19.904-3.84 27.712-11.648s11.648-17.024 11.648-27.712v-78.72c0-10.688-3.84-19.904-11.648-27.712S916.48 0.064 905.792 0.064h-39.36c-42.624 0-83.328 8.256-122.112 24.896C705.6 41.536 672 64 643.648 92.288 615.36 120.64 592.96 154.176 576.32 192.96s-24.96 79.488-24.96 122.176v433.152c0 32.832 11.52 60.736 34.496 83.712s50.88 34.432 83.712 34.432h236.224c32.832 0 60.736-11.392 83.712-34.432s34.432-50.88 34.432-83.712V511.936c0-32.768-11.392-60.608-34.368-83.648m-551.424 0c-22.976-22.976-50.88-34.432-83.648-34.432h-137.92c-16.384 0-30.336-5.76-41.856-17.28-11.52-11.52-17.28-25.472-17.28-41.856v-19.584c0-43.584 15.424-80.64 46.144-111.488 30.784-30.72 67.904-46.144 111.488-46.144h39.36c10.624 0 19.84-3.84 27.648-11.648s11.712-17.024 11.712-27.712v-78.72c0-10.688-3.968-19.904-11.712-27.712S365.12 0.064 354.496 0.064h-39.36c-42.688 0-83.392 8.256-122.176 24.896C154.176 41.536 120.64 64 92.288 92.288 64 120.64 41.536 154.176 24.96 192.96 8.32 231.68 0.064 272.448 0.064 315.136v433.152c0 32.832 11.392 60.736 34.432 83.712s50.88 34.432 83.712 34.432h236.288c32.768 0 60.672-11.392 83.648-34.432 22.976-22.976 34.432-50.88 34.432-83.712V511.936c0-32.768-11.392-60.608-34.432-83.648" fill="#dbdbdb" p-id="14768"></path></svg>