<?xml version="1.0" standalone="no"?><!DOCTYPE svg PUBLIC "-//W3C//DTD SVG 1.1//EN" "http://www.w3.org/Graphics/SVG/1.1/DTD/svg11.dtd"><svg t="1599555856958" class="icon" viewBox="0 0 1024 1024" version="1.1" xmlns="http://www.w3.org/2000/svg" p-id="11432" xmlns:xlink="http://www.w3.org/1999/xlink" width="200" height="200"><defs><style type="text/css"></style></defs><path d="M588.82048 509.9008c-140.40576 0-254.63296-114.22208-254.63296-254.6176 0-6.912 0.28672-13.94176 0.84992-20.89472a20.56704 20.56704 0 0 1 22.20032-18.88256 20.608 20.608 0 0 1 18.87744 22.20032 219.9296 219.9296 0 0 0-0.71168 17.57696c0 117.67296 95.73888 213.40672 213.42208 213.40672 32.19456 0 63.12448-6.97856 91.92448-20.74624a20.61312 20.61312 0 0 1 17.77152 37.18656c-34.40128 16.4352-71.30624 24.77056-109.70112 24.77056zM791.26528 393.31328a20.60288 20.60288 0 0 1-17.80224-30.96064 213.2736 213.2736 0 0 0 28.75392-107.06944c0-117.67808-95.72864-213.42208-213.4016-213.42208a213.28384 213.28384 0 0 0-162.87744 75.47392 20.59264 20.59264 0 0 1-29.04576 2.3808 20.60288 20.60288 0 0 1-2.3808-29.04064C443.05408 33.46432 513.87392 0.65024 588.81024 0.65024c140.3904 0 254.61248 114.2272 254.61248 254.63296a254.54592 254.54592 0 0 1-34.33984 127.77472 20.56704 20.56704 0 0 1-17.8176 10.25536z" fill="#ffffff" p-id="11433"></path><path d="M541.92128 131.13344c-5.20192 3.10272-11.7504 1.85344-14.74048-2.75456-3.03104-4.6336-1.34144-10.91072 3.80416-14.02368a129.83296 129.83296 0 0 1 21.53984-10.4192c5.62688-2.14528 11.72992 0.32256 13.67552 5.48864 1.90976 5.16096-1.0752 11.04896-6.6816 13.17888a101.25312 101.25312 0 0 0-17.59744 8.52992zM680.83712 171.50976c-11.65824-31.19104-40.99584-52.38784-76.61056-55.31136-5.87776-0.47104-9.9328-5.35552-9.07776-10.9056 0.6144-3.9168 3.46624-7.1168 7.16288-8.49408 1.58208-0.5888 3.3024-0.86016 5.0432-0.70144 43.61728 3.58912 79.57504 29.5424 93.85472 67.75296 1.90976 5.16608-1.06496 11.04896-6.69184 13.15328-5.632 2.1504-11.74528-0.3328-13.68064-5.49376zM375.50592 424.10496l115.13856 86.3744-262.30784 294.18496-72.18176-56.56576 219.35104-323.9936m-9.87648-58.92608l-265.15456 391.64928 132.88448 104.13568 317.9008-356.53632-185.63072-139.24864zM376.63232 135.20896l400.47616 281.39008-24.45824 34.80576-400.47616-281.39008z" fill="#ffffff" p-id="11434"></path><path d="M151.68 1023.88736c-12.8768 0-20.1984-1.61792-21.29408-1.87904-37.80096-9.94304-60.33408-28.27264-67.41504-54.59456-13.5424-50.36032 39.61856-105.088 45.72672-111.16544l29.06624 29.21984-14.53056-14.61248 14.55616 14.58176c-13.94176 13.95712-40.83712 49.74592-35.00544 71.296 3.6608 13.54752 22.09792 21.14048 37.13536 25.1648 4.8128 0.8448 93.696 14.10048 234.63424-115.44064 7.37792-6.5024 174.5664-152.5248 330.19392-190.84288 8.9344-2.73408 78.90432-22.1952 144.31232 15.30368 48.94208 28.06272 81.9456 79.9232 98.09408 154.12224 0.75264 3.65056 17.05472 84.98688-10.752 144.97792l-37.39136-17.32608c18.37568-39.66464 11.87328-99.4304 7.81824-119.1168-13.5168-62.11072-39.87456-104.8832-78.27968-126.90944-52.82304-30.29504-111.29344-11.78112-111.88224-11.60192a21.74976 21.74976 0 0 1-1.50016 0.42496c-146.06848 35.69664-311.40352 180.1472-313.05728 181.6064-121.81504 111.96928-211.49696 126.79168-250.42944 126.79168z" fill="#ffffff" p-id="11435"></path></svg>