<?xml version="1.0" standalone="no"?><!DOCTYPE svg PUBLIC "-//W3C//DTD SVG 1.1//EN" "http://www.w3.org/Graphics/SVG/1.1/DTD/svg11.dtd"><svg t="1599555920951" class="icon" viewBox="0 0 1024 1024" version="1.1" xmlns="http://www.w3.org/2000/svg" p-id="13424" xmlns:xlink="http://www.w3.org/1999/xlink" width="200" height="200"><defs><style type="text/css"></style></defs><path d="M827.733333 989.866667h-631.466666C107.52 989.866667 34.133333 916.48 34.133333 827.733333v-631.466666C34.133333 107.52 107.52 34.133333 196.266667 34.133333h631.466666c88.746667 0 162.133333 73.386667 162.133334 162.133334v631.466666c0 88.746667-73.386667 162.133333-162.133334 162.133334z m-631.466666-904.533334C134.826667 85.333333 85.333333 134.826667 85.333333 196.266667v631.466666c0 61.44 49.493333 110.933333 110.933334 110.933334h631.466666c61.44 0 110.933333-49.493333 110.933334-110.933334v-631.466666C938.666667 134.826667 889.173333 85.333333 827.733333 85.333333h-631.466666z" fill="#ffffff" p-id="13425"></path><path d="M290.133333 733.866667m-85.333333 0a85.333333 85.333333 0 1 0 170.666667 0 85.333333 85.333333 0 1 0-170.666667 0Z" fill="#ffffff" fill-opacity=".15" p-id="13426"></path><path d="M571.733333 153.6h-170.666666c-13.653333 0-25.6 11.946667-25.6 25.6v448.853333c-23.893333-18.773333-52.906667-30.72-85.333334-30.72-75.093333 0-136.533333 61.44-136.533333 136.533334s61.44 136.533333 136.533333 136.533333 136.533333-61.44 136.533334-136.533333V204.8h145.066666c13.653333 0 25.6-11.946667 25.6-25.6S585.386667 153.6 571.733333 153.6zM290.133333 819.2c-47.786667 0-85.333333-37.546667-85.333333-85.333333s37.546667-85.333333 85.333333-85.333334 85.333333 37.546667 85.333334 85.333334-37.546667 85.333333-85.333334 85.333333z" fill="#ffffff" p-id="13427"></path><path d="M520.533333 341.333333h324.266667c13.653333 0 25.6 11.946667 25.6 25.6s-11.946667 25.6-25.6 25.6h-324.266667c-13.653333 0-25.6-11.946667-25.6-25.6s11.946667-25.6 25.6-25.6zM520.533333 494.933333h324.266667c13.653333 0 25.6 11.946667 25.6 25.6s-11.946667 25.6-25.6 25.6h-324.266667c-13.653333 0-25.6-11.946667-25.6-25.6s11.946667-25.6 25.6-25.6zM520.533333 648.533333h324.266667c13.653333 0 25.6 11.946667 25.6 25.6s-11.946667 25.6-25.6 25.6h-324.266667c-13.653333 0-25.6-11.946667-25.6-25.6s11.946667-25.6 25.6-25.6z" fill="#ffffff" p-id="13428"></path></svg>