<?xml version="1.0" standalone="no"?><!DOCTYPE svg PUBLIC "-//W3C//DTD SVG 1.1//EN" "http://www.w3.org/Graphics/SVG/1.1/DTD/svg11.dtd"><svg t="1599915108117" class="icon" viewBox="0 0 1024 1024" version="1.1" xmlns="http://www.w3.org/2000/svg" p-id="5722" xmlns:xlink="http://www.w3.org/1999/xlink" width="200" height="200"><defs><style type="text/css"></style></defs><path d="M555.843 804.455h309.26c88.862 0 159.247-60.091 159.247-149.884v-445.894c-0.001-89.795-80.992-168.612-169.854-168.612h-688.405c-88.894 0-160.928 78.815-160.928 168.612v445.894c0 89.793 70.355 149.884 159.249 149.884h110.462c0 0 5.136 0.363 8.285 3.514s3.167 7.717 3.167 7.717 0 65.396 0 76.068c0 29.884 24.64 56.955 75.869 56.955 18.629 0 35.458-13.324 35.458-13.324l158.194-130.932zM164.405 740.757c-47.559 0-95.551-26.656-95.551-86.186v-445.895c0-55.892 45.443-104.912 97.23-104.912h688.407c54.551 0 106.156 50.978 106.156 104.912v445.895c0 59.532-47.995 86.186-95.549 86.186h-317.395l-12.231 2.462-11.797 4.661c0 0-133.072 111.026-158.129 131.21-8.010 6.452-15.529 2.378-15.529-5.19s0-99.353 0-99.353 1.308-7.762-11.11-21.733-25.615-12.057-25.615-12.057h-148.887zM196.255 410.618c0 35.18 28.519 63.699 63.699 63.699s63.699-28.519 63.699-63.699c0 0 0 0 0 0 0-35.18-28.519-63.699-63.699-63.699-35.18 0-63.699 28.519-63.699 63.699 0 0 0 0 0 0zM451.052 410.618c0 35.18 28.519 63.699 63.699 63.699s63.699-28.519 63.699-63.699c0-35.18-28.519-63.699-63.699-63.699-35.18 0-63.699 28.519-63.699 63.699 0 0 0 0 0 0zM705.85 410.618c0 35.18 28.519 63.699 63.699 63.699s63.699-28.519 63.699-63.699c0 0 0 0 0 0 0-35.18-28.519-63.699-63.699-63.699-35.18 0-63.699 28.519-63.699 63.699 0 0 0 0 0 0z" p-id="5723" fill="#999999"></path></svg>