<?xml version="1.0" standalone="no"?><!DOCTYPE svg PUBLIC "-//W3C//DTD SVG 1.1//EN" "http://www.w3.org/Graphics/SVG/1.1/DTD/svg11.dtd"><svg t="1599913743005" class="icon" viewBox="0 0 1024 1024" version="1.1" xmlns="http://www.w3.org/2000/svg" p-id="30512" xmlns:xlink="http://www.w3.org/1999/xlink" width="200" height="200"><defs><style type="text/css"></style></defs><path d="M991.20138 285.2c-10.7-6.5-23.1-9.7-35.6-9.4-14.1-0.1-28 3.3-40.5 9.7L703.30138 388.9v-45.8c0.4-60.4-48.4-109.7-108.8-110.1H109.00138C48.60138 233.2-0.09862 282.2 0.00138 342.6v424.2c-0.3 60.4 48.4 109.7 108.8 110H594.00138c60.4-0.1 109.3-49.2 109.2-109.6v-46.3l10.2 4.9 201.5 98.4c12.5 6.4 26.3 9.7 40.3 9.7 12.5 0.2 24.9-3 35.7-9.3 20.9-13.4 33-38.5 33-69.3V354.6c0.1-30.9-11.9-56-32.7-69.4zM586.00138 827.1H117.40138c-37.1-0.2-67.1-30.4-67.1-67.5V350.2c0-37.1 30-67.2 67.1-67.4h468.5c37.1 0.2 67.1 30.3 67.1 67.4v409.5h0.1c0 37.1-30 67.3-67.1 67.4z m363.5-53.6c-3.9 2.7-8.5 4.1-13.3 4-7.7-0.3-15.2-2.1-22.2-5.4l-207.8-103-3.7-5.9V445.8l3.7-5.8 208.2-101c6.8-3.2 14.1-5 21.6-5.4 4.4-0.5 8.8 0.8 12.3 3.4 9.7 4.2 14.6 16.2 14.6 32.3l0.1 371.5c0 15-4.8 27.6-13.5 32.7z" p-id="30513" fill="#515151"></path><path d="M173.00138 458.3l0.1-7.3h-0.1v7.3zM203.80138 376.2c-8.2-8.1-19.3-12.6-30.9-12.5-11.5 0.2-22.4 4.6-30.8 12.3a42.34 42.34 0 0 0-12.2 31.2c0.1 11.4 4.3 22.3 11.9 30.9 8.6 7.8 19.7 12.3 31.3 12.8v0.1c11.4-0.2 22.4-4.6 30.8-12.4 8.1-8.3 12.5-19.6 12.2-31.2-0.2-11.5-4.6-22.6-12.3-31.2z" p-id="30514" fill="#515151"></path></svg>