<?xml version="1.0" standalone="no"?><!DOCTYPE svg PUBLIC "-//W3C//DTD SVG 1.1//EN" "http://www.w3.org/Graphics/SVG/1.1/DTD/svg11.dtd"><svg t="1599807803241" class="icon" viewBox="0 0 1024 1024" version="1.1" xmlns="http://www.w3.org/2000/svg" p-id="6842" xmlns:xlink="http://www.w3.org/1999/xlink" width="200" height="200"><defs><style type="text/css"></style></defs><path d="M511.999 0C229.229 0 0 229.232 0 512c0 282.77 229.229 512 511.999 512C794.77 1024 1024 794.77 1024 512 1024 229.232 794.77 0 511.999 0z m0 943.582C273.644 943.582 80.418 750.355 80.418 512c0-238.356 193.226-431.582 431.581-431.582 238.357 0 431.582 193.226 431.582 431.582 0 238.355-193.225 431.582-431.582 431.582z" p-id="6843" fill="#ffffff"></path><path d="M432.418 696.791c0 22.207-18.002 40.209-40.209 40.209C370.002 737 352 718.998 352 696.791V327.209C352 305.002 370.002 287 392.209 287c22.207 0 40.209 18.002 40.209 40.209v369.582zM672 696.791C672 718.998 653.998 737 631.791 737c-22.207 0-40.209-18.002-40.209-40.209V327.209c0-22.207 18.002-40.209 40.209-40.209C653.998 287 672 305.002 672 327.209v369.582z" p-id="6844" fill="#ffffff"></path></svg>